<mxfile host="app.diagrams.net" modified="2024-05-31T04:10:19.754Z" agent="Mozilla/5.0 (Macintosh; Intel Mac OS X 10_15_7) AppleWebKit/537.36 (KHTML, like Gecko) Chrome/125.0.0.0 Safari/537.36" etag="uK39vC_vMrZugFO7TZt5" version="24.4.10" type="github">
  <diagram name="第 1 页" id="my_R00X8lxtd07l_SSTb">
    <mxGraphModel dx="2074" dy="1180" grid="1" gridSize="10" guides="1" tooltips="1" connect="1" arrows="1" fold="1" page="1" pageScale="1" pageWidth="1200" pageHeight="500" math="0" shadow="0">
      <root>
        <mxCell id="0" />
        <mxCell id="1" parent="0" />
        <mxCell id="lcf8dqBqyBgC7CTnqn8Q-1" style="edgeStyle=none;rounded=0;orthogonalLoop=1;jettySize=auto;html=1;exitX=0.5;exitY=0;exitDx=0;exitDy=0;entryX=0.5;entryY=1;entryDx=0;entryDy=0;" edge="1" parent="1" source="lcf8dqBqyBgC7CTnqn8Q-2" target="lcf8dqBqyBgC7CTnqn8Q-27">
          <mxGeometry relative="1" as="geometry" />
        </mxCell>
        <mxCell id="lcf8dqBqyBgC7CTnqn8Q-2" value="&lt;font face=&quot;Times New Roman&quot;&gt;Tok0&lt;/font&gt;" style="ellipse;whiteSpace=wrap;html=1;aspect=fixed;fillColor=#e1d5e7;strokeColor=#9673a6;" vertex="1" parent="1">
          <mxGeometry x="70" y="190" width="40" height="40" as="geometry" />
        </mxCell>
        <mxCell id="lcf8dqBqyBgC7CTnqn8Q-3" style="edgeStyle=none;rounded=0;orthogonalLoop=1;jettySize=auto;html=1;exitX=0.5;exitY=0;exitDx=0;exitDy=0;entryX=0.5;entryY=1;entryDx=0;entryDy=0;" edge="1" parent="1" source="lcf8dqBqyBgC7CTnqn8Q-4" target="lcf8dqBqyBgC7CTnqn8Q-33">
          <mxGeometry relative="1" as="geometry" />
        </mxCell>
        <mxCell id="lcf8dqBqyBgC7CTnqn8Q-4" value="&lt;font face=&quot;Times New Roman&quot;&gt;Tok1&lt;/font&gt;" style="ellipse;whiteSpace=wrap;html=1;aspect=fixed;fillColor=#e1d5e7;strokeColor=#9673a6;" vertex="1" parent="1">
          <mxGeometry x="150" y="190" width="40" height="40" as="geometry" />
        </mxCell>
        <mxCell id="lcf8dqBqyBgC7CTnqn8Q-5" style="edgeStyle=none;rounded=0;orthogonalLoop=1;jettySize=auto;html=1;exitX=0.5;exitY=0;exitDx=0;exitDy=0;entryX=0.5;entryY=1;entryDx=0;entryDy=0;" edge="1" parent="1" source="lcf8dqBqyBgC7CTnqn8Q-6" target="lcf8dqBqyBgC7CTnqn8Q-39">
          <mxGeometry relative="1" as="geometry" />
        </mxCell>
        <mxCell id="lcf8dqBqyBgC7CTnqn8Q-6" value="&lt;font face=&quot;Times New Roman&quot;&gt;Tok2&lt;/font&gt;" style="ellipse;whiteSpace=wrap;html=1;aspect=fixed;fillColor=#e1d5e7;strokeColor=#9673a6;" vertex="1" parent="1">
          <mxGeometry x="230" y="190" width="40" height="40" as="geometry" />
        </mxCell>
        <mxCell id="lcf8dqBqyBgC7CTnqn8Q-7" style="edgeStyle=none;rounded=0;orthogonalLoop=1;jettySize=auto;html=1;exitX=0.5;exitY=0;exitDx=0;exitDy=0;entryX=0.5;entryY=1;entryDx=0;entryDy=0;" edge="1" parent="1" source="lcf8dqBqyBgC7CTnqn8Q-8" target="lcf8dqBqyBgC7CTnqn8Q-44">
          <mxGeometry relative="1" as="geometry" />
        </mxCell>
        <mxCell id="lcf8dqBqyBgC7CTnqn8Q-8" value="&lt;font face=&quot;Times New Roman&quot;&gt;SOS&lt;/font&gt;" style="ellipse;whiteSpace=wrap;html=1;aspect=fixed;fillColor=#e1d5e7;strokeColor=#9673a6;" vertex="1" parent="1">
          <mxGeometry x="310" y="190" width="40" height="40" as="geometry" />
        </mxCell>
        <mxCell id="lcf8dqBqyBgC7CTnqn8Q-9" style="edgeStyle=none;rounded=0;orthogonalLoop=1;jettySize=auto;html=1;exitX=0.5;exitY=0;exitDx=0;exitDy=0;entryX=0.5;entryY=1;entryDx=0;entryDy=0;" edge="1" parent="1" source="lcf8dqBqyBgC7CTnqn8Q-10" target="lcf8dqBqyBgC7CTnqn8Q-48">
          <mxGeometry relative="1" as="geometry" />
        </mxCell>
        <mxCell id="lcf8dqBqyBgC7CTnqn8Q-10" value="&lt;font face=&quot;Times New Roman&quot;&gt;Tokn&lt;/font&gt;" style="ellipse;whiteSpace=wrap;html=1;aspect=fixed;fillColor=#e1d5e7;strokeColor=#9673a6;" vertex="1" parent="1">
          <mxGeometry x="410" y="190" width="40" height="40" as="geometry" />
        </mxCell>
        <mxCell id="lcf8dqBqyBgC7CTnqn8Q-11" value="&lt;font face=&quot;Times New Roman&quot;&gt;Tok0&lt;/font&gt;" style="ellipse;whiteSpace=wrap;html=1;aspect=fixed;" vertex="1" parent="1">
          <mxGeometry x="70" y="30" width="40" height="40" as="geometry" />
        </mxCell>
        <mxCell id="lcf8dqBqyBgC7CTnqn8Q-12" value="&lt;font face=&quot;Times New Roman&quot;&gt;Tok1&lt;/font&gt;" style="ellipse;whiteSpace=wrap;html=1;aspect=fixed;" vertex="1" parent="1">
          <mxGeometry x="150" y="30" width="40" height="40" as="geometry" />
        </mxCell>
        <mxCell id="lcf8dqBqyBgC7CTnqn8Q-13" value="&lt;font face=&quot;Times New Roman&quot;&gt;Tok2&lt;/font&gt;" style="ellipse;whiteSpace=wrap;html=1;aspect=fixed;" vertex="1" parent="1">
          <mxGeometry x="230" y="30" width="40" height="40" as="geometry" />
        </mxCell>
        <mxCell id="lcf8dqBqyBgC7CTnqn8Q-14" value="&lt;font face=&quot;Times New Roman&quot;&gt;Tok3&lt;/font&gt;" style="ellipse;whiteSpace=wrap;html=1;aspect=fixed;fillColor=#f8cecc;strokeColor=#b85450;" vertex="1" parent="1">
          <mxGeometry x="310" y="30" width="40" height="40" as="geometry" />
        </mxCell>
        <mxCell id="lcf8dqBqyBgC7CTnqn8Q-15" value="&lt;font face=&quot;Times New Roman&quot;&gt;EOS&lt;/font&gt;" style="ellipse;whiteSpace=wrap;html=1;aspect=fixed;fillColor=#f8cecc;strokeColor=#b85450;" vertex="1" parent="1">
          <mxGeometry x="410" y="30" width="40" height="40" as="geometry" />
        </mxCell>
        <mxCell id="lcf8dqBqyBgC7CTnqn8Q-17" style="edgeStyle=none;rounded=0;orthogonalLoop=1;jettySize=auto;html=1;exitX=0.5;exitY=0;exitDx=0;exitDy=0;entryX=0.5;entryY=1;entryDx=0;entryDy=0;" edge="1" parent="1" source="lcf8dqBqyBgC7CTnqn8Q-18" target="lcf8dqBqyBgC7CTnqn8Q-11">
          <mxGeometry relative="1" as="geometry" />
        </mxCell>
        <mxCell id="lcf8dqBqyBgC7CTnqn8Q-18" value="" style="rounded=1;whiteSpace=wrap;html=1;" vertex="1" parent="1">
          <mxGeometry x="70" y="100" width="40" height="20" as="geometry" />
        </mxCell>
        <mxCell id="lcf8dqBqyBgC7CTnqn8Q-19" style="edgeStyle=none;rounded=0;orthogonalLoop=1;jettySize=auto;html=1;exitX=0.5;exitY=0;exitDx=0;exitDy=0;entryX=0.5;entryY=1;entryDx=0;entryDy=0;" edge="1" parent="1" source="lcf8dqBqyBgC7CTnqn8Q-20" target="lcf8dqBqyBgC7CTnqn8Q-12">
          <mxGeometry relative="1" as="geometry" />
        </mxCell>
        <mxCell id="lcf8dqBqyBgC7CTnqn8Q-20" value="" style="rounded=1;whiteSpace=wrap;html=1;" vertex="1" parent="1">
          <mxGeometry x="150" y="100" width="40" height="20" as="geometry" />
        </mxCell>
        <mxCell id="lcf8dqBqyBgC7CTnqn8Q-21" style="edgeStyle=none;rounded=0;orthogonalLoop=1;jettySize=auto;html=1;exitX=0.5;exitY=0;exitDx=0;exitDy=0;entryX=0.5;entryY=1;entryDx=0;entryDy=0;" edge="1" parent="1" source="lcf8dqBqyBgC7CTnqn8Q-22" target="lcf8dqBqyBgC7CTnqn8Q-13">
          <mxGeometry relative="1" as="geometry" />
        </mxCell>
        <mxCell id="lcf8dqBqyBgC7CTnqn8Q-22" value="" style="rounded=1;whiteSpace=wrap;html=1;" vertex="1" parent="1">
          <mxGeometry x="230" y="100" width="40" height="20" as="geometry" />
        </mxCell>
        <mxCell id="lcf8dqBqyBgC7CTnqn8Q-23" style="rounded=0;orthogonalLoop=1;jettySize=auto;html=1;exitX=0.5;exitY=0;exitDx=0;exitDy=0;entryX=0.5;entryY=1;entryDx=0;entryDy=0;endArrow=none;endFill=0;strokeColor=#CCCCCC;" edge="1" parent="1" source="lcf8dqBqyBgC7CTnqn8Q-27" target="lcf8dqBqyBgC7CTnqn8Q-18">
          <mxGeometry relative="1" as="geometry" />
        </mxCell>
        <mxCell id="lcf8dqBqyBgC7CTnqn8Q-24" style="edgeStyle=none;rounded=0;orthogonalLoop=1;jettySize=auto;html=1;exitX=0.5;exitY=0;exitDx=0;exitDy=0;entryX=0.5;entryY=1;entryDx=0;entryDy=0;endArrow=none;endFill=0;strokeColor=#CCCCCC;" edge="1" parent="1" source="lcf8dqBqyBgC7CTnqn8Q-27" target="lcf8dqBqyBgC7CTnqn8Q-20">
          <mxGeometry relative="1" as="geometry" />
        </mxCell>
        <mxCell id="lcf8dqBqyBgC7CTnqn8Q-25" style="edgeStyle=none;rounded=0;orthogonalLoop=1;jettySize=auto;html=1;exitX=0.5;exitY=0;exitDx=0;exitDy=0;entryX=0.5;entryY=1;entryDx=0;entryDy=0;endArrow=none;endFill=0;strokeColor=#CCCCCC;" edge="1" parent="1" source="lcf8dqBqyBgC7CTnqn8Q-27" target="lcf8dqBqyBgC7CTnqn8Q-22">
          <mxGeometry relative="1" as="geometry" />
        </mxCell>
        <mxCell id="lcf8dqBqyBgC7CTnqn8Q-26" style="edgeStyle=none;rounded=0;orthogonalLoop=1;jettySize=auto;html=1;exitX=0.5;exitY=0;exitDx=0;exitDy=0;entryX=0.5;entryY=1;entryDx=0;entryDy=0;endArrow=none;endFill=0;" edge="1" parent="1" source="lcf8dqBqyBgC7CTnqn8Q-27" target="lcf8dqBqyBgC7CTnqn8Q-41">
          <mxGeometry relative="1" as="geometry" />
        </mxCell>
        <mxCell id="lcf8dqBqyBgC7CTnqn8Q-27" value="" style="rounded=1;whiteSpace=wrap;html=1;" vertex="1" parent="1">
          <mxGeometry x="70" y="140" width="40" height="20" as="geometry" />
        </mxCell>
        <mxCell id="lcf8dqBqyBgC7CTnqn8Q-28" style="rounded=0;orthogonalLoop=1;jettySize=auto;html=1;exitX=0.5;exitY=0;exitDx=0;exitDy=0;entryX=0.5;entryY=1;entryDx=0;entryDy=0;endArrow=none;endFill=0;strokeColor=#CCCCCC;" edge="1" parent="1" source="lcf8dqBqyBgC7CTnqn8Q-33" target="lcf8dqBqyBgC7CTnqn8Q-20">
          <mxGeometry relative="1" as="geometry" />
        </mxCell>
        <mxCell id="lcf8dqBqyBgC7CTnqn8Q-29" style="rounded=0;orthogonalLoop=1;jettySize=auto;html=1;exitX=0.5;exitY=0;exitDx=0;exitDy=0;endArrow=none;endFill=0;strokeColor=#CCCCCC;" edge="1" parent="1" source="lcf8dqBqyBgC7CTnqn8Q-33">
          <mxGeometry relative="1" as="geometry">
            <mxPoint x="250" y="120" as="targetPoint" />
          </mxGeometry>
        </mxCell>
        <mxCell id="lcf8dqBqyBgC7CTnqn8Q-30" style="edgeStyle=none;rounded=0;orthogonalLoop=1;jettySize=auto;html=1;exitX=0.5;exitY=0;exitDx=0;exitDy=0;entryX=0.5;entryY=1;entryDx=0;entryDy=0;endArrow=none;endFill=0;strokeColor=#CCCCCC;" edge="1" parent="1" source="lcf8dqBqyBgC7CTnqn8Q-33" target="lcf8dqBqyBgC7CTnqn8Q-18">
          <mxGeometry relative="1" as="geometry" />
        </mxCell>
        <mxCell id="lcf8dqBqyBgC7CTnqn8Q-31" style="edgeStyle=none;rounded=0;orthogonalLoop=1;jettySize=auto;html=1;exitX=0.5;exitY=0;exitDx=0;exitDy=0;endArrow=none;endFill=0;" edge="1" parent="1" source="lcf8dqBqyBgC7CTnqn8Q-33">
          <mxGeometry relative="1" as="geometry">
            <mxPoint x="330" y="120.00000000000006" as="targetPoint" />
          </mxGeometry>
        </mxCell>
        <mxCell id="lcf8dqBqyBgC7CTnqn8Q-32" style="edgeStyle=none;rounded=0;orthogonalLoop=1;jettySize=auto;html=1;exitX=0.5;exitY=0;exitDx=0;exitDy=0;endArrow=none;endFill=0;" edge="1" parent="1" source="lcf8dqBqyBgC7CTnqn8Q-33">
          <mxGeometry relative="1" as="geometry">
            <mxPoint x="430" y="120.00000000000006" as="targetPoint" />
          </mxGeometry>
        </mxCell>
        <mxCell id="lcf8dqBqyBgC7CTnqn8Q-33" value="" style="rounded=1;whiteSpace=wrap;html=1;" vertex="1" parent="1">
          <mxGeometry x="150" y="140" width="40" height="20" as="geometry" />
        </mxCell>
        <mxCell id="lcf8dqBqyBgC7CTnqn8Q-34" style="edgeStyle=none;rounded=0;orthogonalLoop=1;jettySize=auto;html=1;exitX=0.5;exitY=0;exitDx=0;exitDy=0;endArrow=none;endFill=0;strokeColor=#CCCCCC;" edge="1" parent="1" source="lcf8dqBqyBgC7CTnqn8Q-39">
          <mxGeometry relative="1" as="geometry">
            <mxPoint x="250" y="120" as="targetPoint" />
          </mxGeometry>
        </mxCell>
        <mxCell id="lcf8dqBqyBgC7CTnqn8Q-35" style="edgeStyle=none;rounded=0;orthogonalLoop=1;jettySize=auto;html=1;exitX=0.5;exitY=0;exitDx=0;exitDy=0;endArrow=none;endFill=0;" edge="1" parent="1" source="lcf8dqBqyBgC7CTnqn8Q-39">
          <mxGeometry relative="1" as="geometry">
            <mxPoint x="330" y="120" as="targetPoint" />
          </mxGeometry>
        </mxCell>
        <mxCell id="lcf8dqBqyBgC7CTnqn8Q-36" style="edgeStyle=none;rounded=0;orthogonalLoop=1;jettySize=auto;html=1;exitX=0.5;exitY=0;exitDx=0;exitDy=0;endArrow=none;endFill=0;" edge="1" parent="1" source="lcf8dqBqyBgC7CTnqn8Q-39">
          <mxGeometry relative="1" as="geometry">
            <mxPoint x="430" y="120" as="targetPoint" />
          </mxGeometry>
        </mxCell>
        <mxCell id="lcf8dqBqyBgC7CTnqn8Q-37" style="edgeStyle=none;rounded=0;orthogonalLoop=1;jettySize=auto;html=1;exitX=0.5;exitY=0;exitDx=0;exitDy=0;endArrow=none;endFill=0;strokeColor=#CCCCCC;" edge="1" parent="1" source="lcf8dqBqyBgC7CTnqn8Q-39">
          <mxGeometry relative="1" as="geometry">
            <mxPoint x="170" y="120" as="targetPoint" />
          </mxGeometry>
        </mxCell>
        <mxCell id="lcf8dqBqyBgC7CTnqn8Q-38" style="edgeStyle=none;rounded=0;orthogonalLoop=1;jettySize=auto;html=1;exitX=0.5;exitY=0;exitDx=0;exitDy=0;entryX=0.5;entryY=1;entryDx=0;entryDy=0;endArrow=none;endFill=0;strokeColor=#CCCCCC;" edge="1" parent="1" source="lcf8dqBqyBgC7CTnqn8Q-39" target="lcf8dqBqyBgC7CTnqn8Q-18">
          <mxGeometry relative="1" as="geometry" />
        </mxCell>
        <mxCell id="lcf8dqBqyBgC7CTnqn8Q-39" value="" style="rounded=1;whiteSpace=wrap;html=1;" vertex="1" parent="1">
          <mxGeometry x="230" y="140" width="40" height="20" as="geometry" />
        </mxCell>
        <mxCell id="lcf8dqBqyBgC7CTnqn8Q-40" style="edgeStyle=none;rounded=0;orthogonalLoop=1;jettySize=auto;html=1;exitX=0.5;exitY=0;exitDx=0;exitDy=0;entryX=0.5;entryY=1;entryDx=0;entryDy=0;" edge="1" parent="1" source="lcf8dqBqyBgC7CTnqn8Q-41" target="lcf8dqBqyBgC7CTnqn8Q-14">
          <mxGeometry relative="1" as="geometry" />
        </mxCell>
        <mxCell id="lcf8dqBqyBgC7CTnqn8Q-41" value="" style="rounded=1;whiteSpace=wrap;html=1;fillColor=#ffe6cc;strokeColor=#d79b00;" vertex="1" parent="1">
          <mxGeometry x="310" y="100" width="40" height="20" as="geometry" />
        </mxCell>
        <mxCell id="lcf8dqBqyBgC7CTnqn8Q-42" style="edgeStyle=none;rounded=0;orthogonalLoop=1;jettySize=auto;html=1;exitX=0.5;exitY=0;exitDx=0;exitDy=0;endArrow=none;endFill=0;" edge="1" parent="1" source="lcf8dqBqyBgC7CTnqn8Q-44">
          <mxGeometry relative="1" as="geometry">
            <mxPoint x="330" y="120" as="targetPoint" />
          </mxGeometry>
        </mxCell>
        <mxCell id="lcf8dqBqyBgC7CTnqn8Q-43" style="edgeStyle=none;rounded=0;orthogonalLoop=1;jettySize=auto;html=1;exitX=0.5;exitY=0;exitDx=0;exitDy=0;endArrow=none;endFill=0;" edge="1" parent="1" source="lcf8dqBqyBgC7CTnqn8Q-44">
          <mxGeometry relative="1" as="geometry">
            <mxPoint x="430" y="120" as="targetPoint" />
          </mxGeometry>
        </mxCell>
        <mxCell id="lcf8dqBqyBgC7CTnqn8Q-44" value="" style="rounded=1;whiteSpace=wrap;html=1;fillColor=#ffe6cc;strokeColor=#d79b00;" vertex="1" parent="1">
          <mxGeometry x="310" y="140" width="40" height="20" as="geometry" />
        </mxCell>
        <mxCell id="lcf8dqBqyBgC7CTnqn8Q-45" style="edgeStyle=none;rounded=0;orthogonalLoop=1;jettySize=auto;html=1;exitX=0.5;exitY=0;exitDx=0;exitDy=0;entryX=0.5;entryY=1;entryDx=0;entryDy=0;" edge="1" parent="1" source="lcf8dqBqyBgC7CTnqn8Q-46" target="lcf8dqBqyBgC7CTnqn8Q-15">
          <mxGeometry relative="1" as="geometry" />
        </mxCell>
        <mxCell id="lcf8dqBqyBgC7CTnqn8Q-46" value="" style="rounded=1;whiteSpace=wrap;html=1;fillColor=#ffe6cc;strokeColor=#d79b00;" vertex="1" parent="1">
          <mxGeometry x="410" y="100" width="40" height="20" as="geometry" />
        </mxCell>
        <mxCell id="lcf8dqBqyBgC7CTnqn8Q-47" style="edgeStyle=none;rounded=0;orthogonalLoop=1;jettySize=auto;html=1;exitX=0.5;exitY=0;exitDx=0;exitDy=0;endArrow=none;endFill=0;" edge="1" parent="1" source="lcf8dqBqyBgC7CTnqn8Q-48">
          <mxGeometry relative="1" as="geometry">
            <mxPoint x="430" y="120" as="targetPoint" />
          </mxGeometry>
        </mxCell>
        <mxCell id="lcf8dqBqyBgC7CTnqn8Q-48" value="" style="rounded=1;whiteSpace=wrap;html=1;fillColor=#ffe6cc;strokeColor=#d79b00;" vertex="1" parent="1">
          <mxGeometry x="410" y="140" width="40" height="20" as="geometry" />
        </mxCell>
        <mxCell id="lcf8dqBqyBgC7CTnqn8Q-49" value="" style="endArrow=none;dashed=1;html=1;dashPattern=1 3;strokeWidth=3;rounded=0;endFill=0;" edge="1" parent="1">
          <mxGeometry width="50" height="50" relative="1" as="geometry">
            <mxPoint x="360" y="109.68" as="sourcePoint" />
            <mxPoint x="400" y="109.68" as="targetPoint" />
          </mxGeometry>
        </mxCell>
        <mxCell id="lcf8dqBqyBgC7CTnqn8Q-50" value="" style="endArrow=none;dashed=1;html=1;dashPattern=1 3;strokeWidth=3;rounded=0;" edge="1" parent="1">
          <mxGeometry width="50" height="50" relative="1" as="geometry">
            <mxPoint x="360" y="149.68" as="sourcePoint" />
            <mxPoint x="400" y="149.68" as="targetPoint" />
          </mxGeometry>
        </mxCell>
      </root>
    </mxGraphModel>
  </diagram>
</mxfile>
